<svg width="20" height="20" viewBox="0 0 20 20" fill="none" xmlns="http://www.w3.org/2000/svg">
<path d="M17.3547 8.26952L11.1047 2.01952C10.8117 1.7266 10.4143 1.56204 10 1.56204C9.58569 1.56204 9.18833 1.7266 8.89532 2.01952L2.64532 8.26952C2.49964 8.41431 2.38415 8.58658 2.30557 8.77635C2.22698 8.96611 2.18685 9.1696 2.18751 9.37499V16.875C2.18751 17.1236 2.28628 17.3621 2.4621 17.5379C2.63791 17.7137 2.87637 17.8125 3.12501 17.8125H16.875C17.1236 17.8125 17.3621 17.7137 17.5379 17.5379C17.7137 17.3621 17.8125 17.1236 17.8125 16.875V9.37499C17.8132 9.1696 17.773 8.96611 17.6945 8.77635C17.6159 8.58658 17.5004 8.41431 17.3547 8.26952ZM15.9375 15.9375H4.06251V9.5039L10 3.5664L15.9375 9.5039V15.9375Z" fill="#F4F4F4"/>
</svg>
