<svg width="20" height="20" viewBox="0 0 20 20" fill="none" xmlns="http://www.w3.org/2000/svg">
<path d="M9.77984 12.2609C10.565 11.6009 11.1283 10.7154 11.3931 9.72446C11.658 8.73351 11.6116 7.68507 11.2604 6.72135C10.9092 5.75762 10.27 4.92523 9.42967 4.33707C8.58931 3.74891 7.58839 3.43344 6.56265 3.43344C5.53692 3.43344 4.536 3.74891 3.69564 4.33707C2.85528 4.92523 2.21615 5.75762 1.86492 6.72135C1.51368 7.68507 1.46735 8.73351 1.7322 9.72446C1.99705 10.7154 2.56027 11.6009 3.34546 12.2609C2.11936 12.8153 1.05681 13.6764 0.260309 14.7609C0.113196 14.9614 0.0517444 15.2121 0.0894715 15.4579C0.127199 15.7036 0.261014 15.9244 0.461481 16.0715C0.661947 16.2186 0.912643 16.28 1.15842 16.2423C1.40419 16.2046 1.62492 16.0708 1.77203 15.8703C2.32339 15.1173 3.0445 14.5048 3.87685 14.0827C4.7092 13.6605 5.62936 13.4405 6.56265 13.4405C7.49595 13.4405 8.4161 13.6605 9.24845 14.0827C10.0808 14.5048 10.8019 15.1173 11.3533 15.8703C11.5004 16.0709 11.7212 16.2048 11.967 16.2426C12.2128 16.2804 12.4636 16.219 12.6642 16.0719C12.8648 15.9248 12.9987 15.704 13.0365 15.4581C13.0743 15.2123 13.0129 14.9615 12.8658 14.7609C12.0688 13.6765 11.006 12.8155 9.77984 12.2609ZM3.43765 8.4375C3.43765 7.81943 3.62093 7.21524 3.96431 6.70134C4.30769 6.18744 4.79575 5.7869 5.36677 5.55037C5.93779 5.31385 6.56612 5.25196 7.17231 5.37254C7.7785 5.49312 8.33532 5.79075 8.77236 6.22779C9.2094 6.66483 9.50703 7.22165 9.62761 7.82784C9.74819 8.43403 9.6863 9.06236 9.44978 9.63338C9.21325 10.2044 8.81271 10.6925 8.29881 11.0358C7.78491 11.3792 7.18072 11.5625 6.56265 11.5625C5.73385 11.5625 4.93899 11.2333 4.35294 10.6472C3.76689 10.0612 3.43765 9.2663 3.43765 8.4375ZM19.5392 16.068C19.44 16.1409 19.3273 16.1936 19.2077 16.2229C19.0881 16.2523 18.9639 16.2578 18.8421 16.2392C18.7204 16.2205 18.6035 16.1781 18.4982 16.1143C18.3929 16.0504 18.3011 15.9665 18.2283 15.8672C17.6756 15.1156 16.9542 14.5042 16.1221 14.0822C15.2901 13.6602 14.3706 13.4394 13.4377 13.4375C13.189 13.4375 12.9506 13.3387 12.7747 13.1629C12.5989 12.9871 12.5002 12.7486 12.5002 12.5C12.5002 12.2514 12.5989 12.0129 12.7747 11.8371C12.9506 11.6613 13.189 11.5625 13.4377 11.5625C13.8818 11.5617 14.3207 11.4662 14.7251 11.2825C15.1295 11.0987 15.49 10.8308 15.7827 10.4967C16.0754 10.1626 16.2935 9.76994 16.4224 9.34491C16.5514 8.91988 16.5883 8.47223 16.5306 8.03182C16.473 7.59141 16.3221 7.16835 16.088 6.79084C15.854 6.41334 15.5422 6.09006 15.1733 5.84257C14.8045 5.59508 14.3872 5.42905 13.9491 5.35557C13.5111 5.28208 13.0624 5.30282 12.633 5.4164C12.513 5.4511 12.3874 5.46149 12.2634 5.44697C12.1394 5.43245 12.0195 5.39331 11.9109 5.33184C11.8022 5.27037 11.7069 5.18782 11.6306 5.08902C11.5542 4.99023 11.4984 4.87718 11.4663 4.75652C11.4343 4.63585 11.4267 4.51 11.4439 4.38635C11.4612 4.2627 11.5029 4.14374 11.5668 4.03644C11.6306 3.92915 11.7152 3.83569 11.8157 3.76155C11.9161 3.68741 12.0304 3.63408 12.1517 3.60468C13.2497 3.31375 14.4141 3.40535 15.4531 3.86443C16.4921 4.3235 17.3438 5.12267 17.868 6.13038C18.3923 7.13808 18.5578 8.29425 18.3372 9.40855C18.1167 10.5228 17.5234 11.5288 16.6548 12.2609C17.8809 12.8153 18.9435 13.6764 19.74 14.7609C19.8861 14.9611 19.9469 15.211 19.9093 15.4559C19.8717 15.7008 19.7386 15.9209 19.5392 16.068Z" fill="#F4F4F4"/>
</svg>
