<svg width="10" height="10" viewBox="0 0 10 10" fill="none" xmlns="http://www.w3.org/2000/svg">
<path d="M9.23326 5.44531C9.17313 5.38506 9.09773 5.34231 9.01515 5.32167C8.93257 5.30102 8.84592 5.30325 8.76451 5.32812C8.19581 5.49981 7.59118 5.51402 7.01504 5.36923C6.4389 5.22445 5.91283 4.9261 5.49285 4.50596C5.07287 4.08582 4.77472 3.55963 4.63015 2.98343C4.48559 2.40724 4.50003 1.80262 4.67193 1.23398C4.69701 1.15254 4.69941 1.0658 4.67888 0.983092C4.65834 0.900385 4.61565 0.824841 4.55539 0.764582C4.49514 0.704324 4.41959 0.661633 4.33689 0.6411C4.25418 0.620566 4.16744 0.622968 4.08599 0.648046C3.23068 0.910934 2.48009 1.43693 1.94107 2.15117C1.46971 2.77769 1.18226 3.52317 1.11098 4.30396C1.0397 5.08475 1.18741 5.86996 1.53754 6.57147C1.88767 7.27299 2.42636 7.86306 3.09317 8.27547C3.75998 8.68787 4.52852 8.90631 5.31256 8.90625C6.22793 8.90894 7.11891 8.6113 7.84888 8.05898C8.56274 7.51943 9.0882 6.76842 9.35045 5.91289C9.37509 5.83165 9.3772 5.74523 9.35656 5.66288C9.33592 5.58053 9.29331 5.50533 9.23326 5.44531ZM7.28482 7.31016C6.65299 7.78581 5.87062 8.01725 5.0817 7.9619C4.29277 7.90655 3.55039 7.56812 2.99116 7.00889C2.43194 6.44967 2.09351 5.70728 2.03816 4.91836C1.9828 4.12944 2.21425 3.34707 2.6899 2.71523C2.94019 2.38416 3.25037 2.103 3.60435 1.88633C3.59732 1.98633 3.59381 2.08672 3.59381 2.1875C3.59505 3.306 4.03992 4.37834 4.83082 5.16924C5.62172 5.96014 6.69406 6.40501 7.81256 6.40625C7.91334 6.40625 8.01373 6.40273 8.11373 6.3957C7.89716 6.74976 7.61598 7.05997 7.28482 7.31016Z" fill="#929292"/>
</svg>
